<svg width="87" height="17" viewBox="0 0 116 23" fill="none" xmlns="http://www.w3.org/2000/svg">
<path d="M48.611 13.4128C48.611 13.8876 48.5814 14.3821 48.522 14.8965H37.0381C37.1172 15.9252 37.4436 16.7165 38.0173 17.2704C38.6108 17.8046 39.3329 18.0716 40.1835 18.0716C41.4497 18.0716 42.33 17.5375 42.8246 16.4692H48.2253C47.9483 17.5573 47.4439 18.5365 46.7119 19.407C45.9997 20.2774 45.0996 20.9599 44.0115 21.4545C42.9235 21.9491 41.7068 22.1964 40.3616 22.1964C38.7394 22.1964 37.2953 21.8502 36.0291 21.1578C34.763 20.4654 33.7739 19.4762 33.0617 18.1903C32.3495 16.9044 31.9934 15.401 31.9934 13.6798C31.9934 11.9587 32.3396 10.4552 33.032 9.16935C33.7442 7.88347 34.7334 6.89432 35.9995 6.20193C37.2656 5.50952 38.7196 5.16332 40.3616 5.16332C41.964 5.16332 43.3884 5.49963 44.6347 6.17225C45.881 6.84487 46.8504 7.80434 47.5428 9.05066C48.255 10.297 48.611 11.751 48.611 13.4128ZM43.418 12.0774C43.418 11.207 43.1213 10.5146 42.5278 10.0002C41.9343 9.48588 41.1925 9.2287 40.3022 9.2287C39.4516 9.2287 38.7295 9.47599 38.136 9.97056C37.5623 10.4651 37.2062 11.1674 37.0677 12.0774H43.418Z" fill="#404041"/>
<path d="M55.7688 7.74499C56.2436 6.97346 56.9261 6.3503 57.8163 5.87551C58.7066 5.40072 59.7254 5.16332 60.8728 5.16332C62.2378 5.16332 63.4742 5.50952 64.5821 6.20193C65.6899 6.89432 66.5604 7.88347 67.1934 9.16935C67.8462 10.4552 68.1727 11.9488 68.1727 13.6502C68.1727 15.3515 67.8462 16.855 67.1934 18.1607C66.5604 19.4465 65.6899 20.4456 64.5821 21.1578C63.4742 21.8502 62.2378 22.1964 60.8728 22.1964C59.7056 22.1964 58.6868 21.9689 57.8163 21.5139C56.9459 21.0391 56.2634 20.4159 55.7688 19.6444V21.959H50.6945V0H55.7688V7.74499ZM63.0093 13.6502C63.0093 12.3841 62.6532 11.3949 61.9411 10.6827C61.2487 9.95078 60.3881 9.58479 59.3594 9.58479C58.3505 9.58479 57.4899 9.95078 56.7777 10.6827C56.0853 11.4147 55.7391 12.4137 55.7391 13.6798C55.7391 14.9459 56.0853 15.945 56.7777 16.6769C57.4899 17.4089 58.3505 17.7749 59.3594 17.7749C60.3683 17.7749 61.2289 17.4089 61.9411 16.6769C62.6532 15.9252 63.0093 14.9163 63.0093 13.6502Z" fill="#404041"/>
<path d="M100.136 13.4128C100.136 13.8876 100.106 14.3821 100.047 14.8965H88.5629C88.6421 15.9252 88.9685 16.7165 89.5422 17.2704C90.1357 17.8046 90.8577 18.0716 91.7084 18.0716C92.9745 18.0716 93.8548 17.5375 94.3494 16.4692H99.7501C99.4732 17.5573 98.9687 18.5365 98.2367 19.407C97.5246 20.2774 96.6245 20.9599 95.5364 21.4545C94.4483 21.9491 93.2317 22.1964 91.8865 22.1964C90.2643 22.1964 88.8201 21.8502 87.554 21.1578C86.2879 20.4654 85.2988 19.4762 84.5866 18.1903C83.8744 16.9044 83.5183 15.4009 83.5183 13.6798C83.5183 11.9587 83.8645 10.4552 84.5569 9.16935C85.2691 7.88346 86.2582 6.89432 87.5243 6.20192C88.7904 5.50952 90.2445 5.16332 91.8865 5.16332C93.4889 5.16332 94.9132 5.49963 96.1596 6.17224C97.4059 6.84486 98.3752 7.80433 99.0676 9.05065C99.7798 10.297 100.136 11.751 100.136 13.4128ZM94.9429 12.0774C94.9429 11.207 94.6462 10.5146 94.0527 10.0002C93.4592 9.48587 92.7173 9.22869 91.8271 9.22869C90.9764 9.22869 90.2544 9.47598 89.6609 9.97055C89.0872 10.4651 88.7311 11.1674 88.5926 12.0774H94.9429Z" fill="#404041"/>
<path d="M108.955 22.1964C107.511 22.1964 106.225 21.9491 105.098 21.4545C103.97 20.9599 103.08 20.2873 102.427 19.4366C101.774 18.5662 101.408 17.5968 101.329 16.5286H106.344C106.403 17.1023 106.671 17.5672 107.145 17.9233C107.62 18.2794 108.204 18.4574 108.896 18.4574C109.529 18.4574 110.014 18.3387 110.35 18.1013C110.706 17.8441 110.884 17.5177 110.884 17.1221C110.884 16.6473 110.637 16.3011 110.142 16.0835C109.648 15.8461 108.847 15.5889 107.739 15.3119C106.552 15.035 105.563 14.7481 104.771 14.4514C103.98 14.1348 103.298 13.6502 102.724 12.9973C102.15 12.3247 101.863 11.4246 101.863 10.297C101.863 9.34739 102.12 8.48684 102.635 7.71531C103.169 6.92399 103.94 6.30083 104.949 5.84583C105.978 5.39082 107.195 5.16332 108.599 5.16332C110.677 5.16332 112.309 5.67767 113.496 6.70638C114.702 7.73509 115.395 9.10011 115.573 10.8014H110.884C110.805 10.2277 110.548 9.77272 110.113 9.43641C109.697 9.10011 109.143 8.93195 108.451 8.93195C107.857 8.93195 107.402 9.05065 107.086 9.28804C106.769 9.50566 106.611 9.81229 106.611 10.2079C106.611 10.6827 106.858 11.0388 107.353 11.2762C107.867 11.5136 108.659 11.751 109.727 11.9884C110.953 12.3049 111.953 12.6215 112.724 12.938C113.496 13.2347 114.168 13.7293 114.742 14.4217C115.335 15.0943 115.642 16.0043 115.662 17.1517C115.662 18.1211 115.385 18.9915 114.831 19.7631C114.297 20.5148 113.515 21.1083 112.487 21.5435C111.478 21.9787 110.301 22.1964 108.955 22.1964Z" fill="#404041"/>
<path d="M85.4476 1.1275L78.2367 15.0744V21.9588H73.1624V15.0744L65.9516 1.1275H71.7084L75.7441 9.85174L79.7501 1.1275H85.4476Z" fill="#404041"/>
<path d="M32.6544 0.0166016H26.683L20.1052 21.6639H26.0765L32.6544 0.0166016Z" fill="#2684FF"/>
<path d="M19.4982 0.0166016H13.5268L6.96234 21.6639H12.9337L19.4982 0.0166016Z" fill="#2684FF"/>
<path d="M13.2239 20.6704L12.9101 21.7162L9.87743 11.9906L10.2434 10.8402L13.2239 20.6704Z" fill="#115ABE"/>
<path d="M26.4004 20.618L26.0866 21.6638L23.0539 11.8859L23.4199 10.7355L26.4004 20.618Z" fill="#115ABE"/>
<path d="M0.36084 0.0165405H6.3417L12.93 21.6639H6.94916L0.36084 0.0165405Z" fill="#0B66E4"/>
<path d="M13.5176 0.0166016H19.4985L26.0868 21.6639H20.1059L13.5176 0.0166016Z" fill="#0B66E4"/>
</svg>
