<svg width="90" height="34" viewBox="0 0 120 45.577" fill="none" xmlns="http://www.w3.org/2000/svg"><path d="M49.37 24.717q0 0.729 -0.091 1.518H37.529q0.121 1.579 1.002 2.429 0.91 0.82 2.217 0.82 1.942 0 2.702 -1.64h5.526a7.5 7.5 0 0 1 -1.548 3.006q-1.093 1.336 -2.763 2.095 -1.67 0.76 -3.734 0.759 -2.489 0 -4.432 -1.063 -1.944 -1.063 -3.036 -3.036 -1.093 -1.973 -1.093 -4.615 0 -2.641 1.063 -4.615 1.093 -1.973 3.036 -3.036t4.463 -1.063q2.459 0 4.372 1.033 1.913 1.032 2.976 2.945 1.093 1.913 1.093 4.464m-5.313 -1.366q0 -1.336 -0.911 -2.125 -0.91 -0.79 -2.277 -0.79 -1.306 0 -2.217 0.759 -0.88 0.759 -1.093 2.156zM56.694 18.917q0.729 -1.184 2.095 -1.913t3.127 -0.729q2.095 0 3.796 1.063t2.672 3.036q1.002 1.973 1.002 4.585 0 2.611 -1.002 4.615 -0.972 1.973 -2.672 3.066 -1.701 1.063 -3.796 1.063 -1.791 0 -3.127 -0.698 -1.336 -0.729 -2.095 -1.913V33.462h-5.192V10.993h5.192zm7.408 6.042q0 -1.944 -1.093 -3.036 -1.063 -1.123 -2.642 -1.123 -1.548 0 -2.642 1.123 -1.063 1.123 -1.063 3.067t1.063 3.066q1.093 1.123 2.642 1.123t2.642 -1.123q1.093 -1.154 1.093 -3.097" fill="#404041"/><path d="M102.09 24.717q0 0.729 -0.091 1.518h-11.75q0.121 1.579 1.002 2.429 0.91 0.82 2.217 0.82 1.943 0 2.702 -1.64h5.526a7.5 7.5 0 0 1 -1.548 3.006q-1.093 1.336 -2.763 2.095 -1.67 0.76 -3.735 0.759 -2.489 0 -4.432 -1.063 -1.944 -1.063 -3.036 -3.036 -1.093 -1.973 -1.093 -4.615 0 -2.641 1.063 -4.615 1.093 -1.973 3.036 -3.036 1.944 -1.063 4.463 -1.063 2.46 0 4.372 1.033 1.912 1.032 2.976 2.945 1.093 1.913 1.093 4.464m-5.313 -1.366q0 -1.336 -0.911 -2.125 -0.91 -0.79 -2.277 -0.79 -1.305 0 -2.217 0.759 -0.88 0.759 -1.093 2.156zm14.338 10.353q-2.217 0 -3.947 -0.759t-2.732 -2.064q-1.002 -1.337 -1.123 -2.976h5.131q0.091 0.88 0.82 1.427 0.729 0.546 1.791 0.546 0.972 0 1.488 -0.365 0.546 -0.395 0.546 -1.002 0 -0.729 -0.759 -1.063 -0.759 -0.365 -2.459 -0.79 -1.822 -0.425 -3.036 -0.88a5.452 5.452 0 0 1 -2.095 -1.488q-0.88 -1.033 -0.88 -2.763 0 -1.457 0.789 -2.641 0.82 -1.214 2.368 -1.912 1.58 -0.698 3.735 -0.699 3.188 0 5.009 1.579 1.853 1.578 2.125 4.19h-4.797q-0.121 -0.88 -0.789 -1.396 -0.637 -0.516 -1.7 -0.516 -0.912 0 -1.397 0.364 -0.486 0.334 -0.486 0.942 0 0.729 0.759 1.093 0.789 0.363 2.429 0.729 1.882 0.485 3.066 0.972 1.184 0.455 2.065 1.518 0.91 1.033 0.941 2.793 0 1.488 -0.85 2.672 -0.82 1.154 -2.399 1.821 -1.548 0.668 -3.613 0.668" fill="#404041"/><path d="M87.061 12.147 79.682 26.417V33.462h-5.192V26.417l-7.378 -14.27h5.89l4.129 8.926 4.099 -8.926z" fill="#404041"/><path d="M33.043 11.102h-6.11L20.202 33.251h6.11z" fill="#2684FF"/><path d="M19.581 11.102h-6.11L6.755 33.251h6.11z" fill="#2684FF"/><path d="m13.161 32.234 -0.321 1.07 -3.104 -9.951 0.375 -1.177z" fill="#115ABE"/><path d="m26.644 32.181 -0.321 1.07 -3.103 -10.004 0.374 -1.177z" fill="#115ABE"/><path d="M0 11.102h6.119l6.741 22.149H6.741z" fill="#0B66E4"/><path d="M13.462 11.102h6.119l6.741 22.149H20.204z" fill="#0B66E4"/></svg>